<?xml version="1.0" encoding="UTF-8"?>
<svg xmlns="http://www.w3.org/2000/svg" viewBox="0 0 216 216">
  <defs>
    <style>.cls-1{fill:#003e6b;}.cls-2{fill:#fff;}.cls-3{fill:none;stroke:#003e6b;stroke-width:2.73px;}</style>
  </defs>
  <title>digital-pressure</title>
  <g id="Layer_2" data-name="Layer 2">
    <g id="Layer_1-2" data-name="Layer 1">
      <path class="cls-1" d="M216,108A108,108,0,1,0,108,216,108,108,0,0,0,216,108Z"></path>
      <path class="cls-2" d="M81.92,72.76c0-20.21,22-36.6,49-36.6s49,16.39,49,36.6c0,11-6.49,20.83-16.76,27.54L172,118.66,137.4,109c-2.11.21-4.26.33-6.44.33-27.08,0-49-16.39-49-36.6Z"></path>
      <path class="cls-1" d="M129.17,87.89V81.8H113.1V74.45h15.73V68.36H113.1V61.49h16.07V55.41h-23V87.89Zm16.81.58c8.77,0,13-4.48,13-10.42,0-12.12-18.65-8.67-18.65-13.83C140.33,62.27,142,61,145,61a13.94,13.94,0,0,1,9.44,3.55l3.85-5.06c-3.21-3-7.5-4.53-12.66-4.53-7.64,0-12.32,4.48-12.32,9.89,0,12.22,18.7,8.27,18.7,14,0,1.85-1.85,3.6-5.65,3.6A14.22,14.22,0,0,1,136,78.05l-3.75,5.26c3,3.07,7.5,5.16,13.73,5.16Z"></path>
      <path class="cls-2" d="M138.17,129.71c0-20.93-22.61-38-50.4-38s-50.41,17-50.41,38c0,10.68,6,20.83,16.39,28q-4.14,8.64-8.27,17.29l-1.29,2.71,2.89-.81,34.37-9.55c2.15.2,4.28.3,6.32.3,27.79,0,50.4-17,50.4-38Z"></path>
      <path class="cls-3" d="M138.17,129.71c0-20.93-22.61-38-50.4-38s-50.41,17-50.41,38c0,10.68,6,20.83,16.39,28q-4.14,8.64-8.27,17.29l-1.29,2.71,2.89-.81,34.37-9.55c2.15.2,4.28.3,6.32.3,27.79,0,50.4-17,50.4-38Z"></path>
      <path class="cls-1" d="M82.71,144.84v-6.09H66.64V131.4H82.37v-6.09H66.64v-6.86H82.71v-6.09h-23v32.48Zm34.59,0V112.36h-6.91v20.4l-15-20.4H88.23v32.48h6.91V123.66l15.49,21.18Z"></path>
    </g>
  </g>
</svg>
