<svg xmlns="http://www.w3.org/2000/svg" width="512" height="512" viewBox="0 0 512 512" fill="none"><rect width="512" height="512" rx="256" fill="url(#paint0_linear_3179_2104)"></rect><path d="M256 206.565C262.1 206.564 267.957 208.963 272.305 213.242C276.653 217.522 279.144 223.34 279.24 229.44C279.171 235.582 276.7 241.453 272.356 245.797C268.013 250.14 262.142 252.611 256 252.68C249.888 252.601 244.053 250.118 239.759 245.768C235.465 241.418 233.058 235.552 233.058 229.44C233.063 226.432 233.66 223.454 234.815 220.676C235.97 217.898 237.661 215.375 239.791 213.251C241.922 211.127 244.45 209.443 247.231 208.296C250.012 207.149 252.991 206.561 256 206.565ZM370.573 391.257V359.85C370.625 358.308 371.281 356.85 372.398 355.787C373.516 354.725 375.007 354.145 376.549 354.172C377.293 354.168 378.03 354.312 378.717 354.597C379.404 354.881 380.027 355.3 380.55 355.829C381.073 356.358 381.484 356.986 381.761 357.677C382.037 358.367 382.173 359.106 382.16 359.85V391.257C382.206 391.993 382.517 392.688 383.036 393.213C383.554 393.738 384.246 394.057 384.982 394.112H390.991C391.727 394.057 392.418 393.738 392.937 393.213C393.456 392.688 393.767 391.993 393.813 391.257V329.472C393.806 328.708 393.562 327.966 393.116 327.347L379.338 306.165C379.011 305.672 378.567 305.268 378.045 304.988C377.524 304.708 376.941 304.562 376.35 304.562C375.758 304.562 375.175 304.708 374.654 304.988C374.133 305.268 373.689 305.672 373.362 306.165L359.584 327.347C359.151 327.973 358.909 328.711 358.886 329.472V391.257C358.932 391.993 359.244 392.688 359.762 393.213C360.281 393.738 360.972 394.057 361.708 394.112H367.718C368.092 394.116 368.464 394.046 368.811 393.903C369.157 393.761 369.472 393.55 369.735 393.284C369.998 393.017 370.205 392.7 370.344 392.352C370.482 392.004 370.549 391.631 370.54 391.257H370.573ZM290.461 391.257V359.85C290.461 358.353 291.056 356.917 292.114 355.859C293.173 354.8 294.608 354.206 296.105 354.206C297.602 354.206 299.038 354.8 300.096 355.859C301.155 356.917 301.749 358.353 301.749 359.85V391.257C301.795 391.993 302.106 392.688 302.625 393.213C303.144 393.738 303.835 394.057 304.571 394.112H310.58C310.955 394.116 311.327 394.046 311.673 393.903C312.02 393.761 312.334 393.55 312.598 393.284C312.861 393.017 313.068 392.7 313.207 392.352C313.345 392.004 313.411 391.631 313.402 391.257V329.472C313.493 328.743 313.366 328.003 313.037 327.347L298.927 306.165C298.629 305.685 298.214 305.288 297.72 305.013C297.226 304.738 296.67 304.594 296.105 304.594C295.54 304.594 294.984 304.738 294.49 305.013C293.996 305.288 293.581 305.685 293.283 306.165L279.24 327.347C278.911 328.003 278.784 328.743 278.874 329.472V391.257C278.865 391.631 278.932 392.004 279.07 392.352C279.209 392.7 279.416 393.017 279.679 393.284C279.942 393.55 280.257 393.761 280.603 393.903C280.95 394.046 281.322 394.116 281.696 394.112H287.706C288.442 394.057 289.133 393.738 289.652 393.213C290.17 392.688 290.482 391.993 290.528 391.257H290.461ZM210.35 391.257V357.028C210.461 355.558 211.123 354.185 212.203 353.183C213.284 352.181 214.703 351.624 216.176 351.624C217.65 351.624 219.069 352.181 220.149 353.183C221.23 354.185 221.892 355.558 222.003 357.028V391.257C221.994 391.631 222.06 392.004 222.199 392.352C222.337 392.7 222.544 393.017 222.807 393.284C223.071 393.55 223.385 393.761 223.732 393.903C224.078 394.046 224.45 394.116 224.825 394.112H230.469C231.205 394.057 231.896 393.738 232.415 393.213C232.934 392.688 233.245 391.993 233.291 391.257V329.472C233.291 328.741 233.291 328.409 232.926 328.409C232.948 328.219 232.93 328.026 232.873 327.842C232.816 327.659 232.721 327.49 232.594 327.347L218.816 306.165C218.485 305.672 218.037 305.268 217.513 304.989C216.989 304.709 216.405 304.563 215.811 304.563C215.217 304.563 214.633 304.709 214.109 304.989C213.585 305.268 213.137 305.672 212.806 306.165L199.062 327.347C198.615 327.966 198.371 328.708 198.364 329.472V391.257C198.411 391.993 198.722 392.688 199.24 393.213C199.759 393.738 200.45 394.057 201.186 394.112H207.528C208.264 394.057 208.955 393.738 209.474 393.213C209.992 392.688 210.304 391.993 210.35 391.257ZM344.81 382.791H327.878C327.506 382.786 327.137 382.856 326.792 382.996C326.448 383.137 326.135 383.344 325.872 383.607C325.609 383.87 325.402 384.183 325.261 384.528C325.121 384.872 325.051 385.241 325.056 385.613V394.112C324.965 397.132 323.689 399.994 321.503 402.08C320.447 403.151 319.184 403.997 317.792 404.568C316.4 405.138 314.907 405.421 313.402 405.4H278.808C277.303 405.427 275.808 405.147 274.415 404.576C273.022 404.005 271.76 403.156 270.707 402.08C269.609 401.031 268.73 399.776 268.12 398.385C267.51 396.995 267.182 395.497 267.155 393.979V385.48C267.191 385.1 267.142 384.718 267.013 384.359C266.884 384 266.677 383.674 266.408 383.405C266.138 383.135 265.813 382.929 265.454 382.799C265.095 382.67 264.712 382.622 264.333 382.658H247.401C247.029 382.653 246.66 382.723 246.316 382.864C245.971 383.004 245.658 383.212 245.395 383.475C245.132 383.737 244.925 384.05 244.785 384.395C244.644 384.739 244.574 385.108 244.579 385.48V394.112C244.635 395.609 244.381 397.102 243.833 398.497C243.286 399.892 242.456 401.158 241.397 402.218C240.337 403.278 239.071 404.107 237.676 404.655C236.281 405.202 234.788 405.456 233.291 405.4H198.364C196.866 405.456 195.371 405.202 193.975 404.655C192.578 404.107 191.31 403.279 190.247 402.22C189.185 401.161 188.353 399.894 187.801 398.499C187.25 397.104 186.992 395.611 187.043 394.112V385.48C187.041 385.081 186.955 384.688 186.791 384.324C186.627 383.961 186.389 383.635 186.092 383.37C185.795 383.104 185.445 382.903 185.066 382.781C184.687 382.658 184.286 382.616 183.889 382.658H167.289C166.91 382.622 166.527 382.67 166.168 382.799C165.81 382.929 165.484 383.135 165.214 383.405C164.945 383.674 164.738 384 164.609 384.359C164.48 384.718 164.431 385.1 164.467 385.48V394.112C164.389 397.128 163.125 399.991 160.948 402.08C159.886 403.154 158.618 404.001 157.221 404.572C155.823 405.142 154.324 405.424 152.814 405.4H118.253C116.739 405.459 115.229 405.193 113.827 404.62C112.424 404.047 111.159 403.181 110.119 402.08C107.954 399.983 106.692 397.125 106.6 394.112V329.472C106.493 326.449 107.354 323.472 109.056 320.972L122.834 299.791C124.227 297.75 126.096 296.081 128.28 294.927C130.464 293.773 132.897 293.17 135.367 293.17C137.838 293.17 140.27 293.773 142.455 294.927C144.639 296.081 146.508 297.75 147.9 299.791L162.01 320.972C163.552 323.545 164.399 326.473 164.467 329.472V334.75C164.405 335.159 164.432 335.575 164.545 335.973C164.658 336.37 164.855 336.738 165.122 337.053C165.39 337.367 165.722 337.621 166.095 337.797C166.469 337.972 166.876 338.065 167.289 338.07H183.889C184.741 338.028 185.543 337.659 186.13 337.041C186.717 336.423 187.044 335.603 187.043 334.75V329.472C186.966 326.438 187.862 323.46 189.6 320.972L203.344 299.791C204.711 297.715 206.572 296.012 208.759 294.833C210.947 293.655 213.393 293.038 215.877 293.038C218.362 293.038 220.808 293.655 222.996 294.833C225.183 296.012 227.044 297.715 228.41 299.791L242.188 320.972C243.251 322.4 243.583 323.828 244.28 324.857C244.596 326.373 244.719 327.924 244.645 329.472V334.75C244.59 335.562 244.854 336.364 245.381 336.984C245.908 337.605 246.657 337.994 247.467 338.07H264.399C264.812 338.065 265.219 337.972 265.593 337.797C265.967 337.621 266.299 337.367 266.566 337.053C266.833 336.738 267.03 336.37 267.143 335.973C267.256 335.575 267.283 335.159 267.221 334.75V329.472C267.284 326.468 268.143 323.535 269.711 320.972L283.821 299.791C285.188 297.715 287.048 296.012 289.236 294.833C291.423 293.655 293.869 293.038 296.354 293.038C298.839 293.038 301.285 293.655 303.473 294.833C305.66 296.012 307.521 297.715 308.887 299.791L322.632 320.972C324.346 323.468 325.219 326.446 325.122 329.472V334.75C325.058 335.564 325.319 336.371 325.847 336.993C326.376 337.615 327.13 338.003 327.944 338.07H344.876C345.686 337.994 346.435 337.605 346.962 336.984C347.49 336.364 347.754 335.562 347.698 334.75V329.472C347.592 326.449 348.452 323.472 350.155 320.972L363.933 299.791C365.296 297.715 367.153 296.011 369.338 294.832C371.523 293.653 373.966 293.036 376.449 293.036C378.932 293.036 381.376 293.653 383.561 294.832C385.746 296.011 387.603 297.715 388.966 299.791L402.744 320.972C404.446 323.472 405.307 326.449 405.2 329.472V394.112C405.223 395.6 404.946 397.078 404.387 398.458C403.827 399.838 402.997 401.091 401.944 402.144C400.891 403.196 399.638 404.027 398.258 404.586C396.879 405.146 395.401 405.422 393.912 405.4H358.92C357.432 405.418 355.956 405.138 354.579 404.577C353.201 404.016 351.95 403.185 350.898 402.133C349.846 401.082 349.016 399.83 348.455 398.453C347.894 397.075 347.614 395.599 347.632 394.112V385.48C347.636 385.108 347.566 384.739 347.426 384.395C347.286 384.05 347.078 383.737 346.815 383.475C346.552 383.212 346.239 383.004 345.895 382.864C345.55 382.723 345.181 382.653 344.81 382.658V382.791ZM327.878 371.138H344.81C345.543 371.091 346.233 370.778 346.753 370.259C347.272 369.739 347.585 369.049 347.632 368.316V352.081C347.585 351.348 347.272 350.657 346.753 350.137C346.233 349.618 345.543 349.306 344.81 349.259H327.878C327.145 349.306 326.454 349.618 325.934 350.137C325.415 350.657 325.103 351.348 325.056 352.081V368.316C325.103 369.049 325.415 369.739 325.934 370.259C326.454 370.778 327.145 371.091 327.878 371.138ZM247.401 371.138H264.333C264.705 371.142 265.074 371.072 265.418 370.932C265.762 370.792 266.075 370.584 266.338 370.321C266.601 370.058 266.809 369.745 266.949 369.401C267.089 369.056 267.159 368.687 267.155 368.316V352.081C267.159 351.709 267.089 351.34 266.949 350.996C266.809 350.651 266.601 350.338 266.338 350.075C266.075 349.812 265.762 349.605 265.418 349.464C265.074 349.324 264.705 349.254 264.333 349.259H247.401C246.668 349.306 245.977 349.618 245.458 350.137C244.938 350.657 244.626 351.348 244.579 352.081V368.316C244.626 369.049 244.938 369.739 245.458 370.259C245.977 370.778 246.668 371.091 247.401 371.138ZM167.289 371.138H183.889C184.675 371.157 185.44 370.876 186.026 370.352C186.612 369.827 186.976 369.099 187.043 368.316V352.081C186.976 351.297 186.612 350.569 186.026 350.044C185.44 349.52 184.675 349.239 183.889 349.259H167.289C166.917 349.254 166.548 349.324 166.204 349.464C165.86 349.605 165.547 349.812 165.284 350.075C165.021 350.338 164.813 350.651 164.673 350.996C164.533 351.34 164.463 351.709 164.467 352.081V368.316C164.463 368.687 164.533 369.056 164.673 369.401C164.813 369.745 165.021 370.058 165.284 370.321C165.547 370.584 165.86 370.792 166.204 370.932C166.548 371.072 166.917 371.142 167.289 371.138ZM152.814 391.257V329.472C152.897 328.746 152.782 328.012 152.482 327.347L138.372 306.165C138.074 305.685 137.659 305.288 137.165 305.013C136.671 304.738 136.115 304.594 135.55 304.594C134.985 304.594 134.429 304.738 133.935 305.013C133.441 305.288 133.026 305.685 132.728 306.165L118.585 327.347C118.285 328.012 118.17 328.746 118.253 329.472V391.257C118.244 391.631 118.31 392.004 118.449 392.352C118.587 392.7 118.794 393.017 119.057 393.284C119.321 393.55 119.635 393.761 119.982 393.903C120.328 394.046 120.7 394.116 121.075 394.112H126.52C127.325 394.12 128.106 393.835 128.717 393.309C129.328 392.784 129.727 392.054 129.84 391.257V359.85C129.84 358.353 130.434 356.917 131.493 355.859C132.551 354.8 133.987 354.206 135.484 354.206C136.98 354.206 138.416 354.8 139.475 355.859C140.533 356.917 141.128 358.353 141.128 359.85V391.257C141.174 391.993 141.485 392.688 142.004 393.213C142.522 393.738 143.214 394.057 143.95 394.112H150.291C151.027 394.057 151.718 393.738 152.237 393.213C152.756 392.688 153.067 391.993 153.113 391.257H152.814ZM369.51 273.662C369.51 275.208 368.897 276.69 367.804 277.782C366.711 278.875 365.229 279.489 363.684 279.489C362.138 279.489 360.656 278.875 359.564 277.782C358.471 276.69 357.857 275.208 357.857 273.662V250.688C357.932 248.163 357.43 245.654 356.388 243.353C355.347 241.052 353.794 239.018 351.848 237.408L267.155 162.044C264.107 159.3 260.151 157.782 256.049 157.782C251.948 157.782 247.992 159.3 244.944 162.044L159.886 237.275C158 238.936 156.489 240.979 155.453 243.269C154.417 245.559 153.88 248.042 153.876 250.555V273.53C153.876 275.026 153.282 276.462 152.223 277.52C151.165 278.579 149.729 279.174 148.232 279.174C146.736 279.174 145.3 278.579 144.242 277.52C143.183 276.462 142.588 275.026 142.588 273.53V250.688C142.475 246.566 143.27 242.469 144.917 238.688C146.563 234.907 149.021 231.534 152.117 228.809L237.175 153.08C242.319 148.476 248.98 145.931 255.883 145.931C262.787 145.931 269.447 148.476 274.592 153.08L359.617 228.809C362.78 231.502 365.312 234.858 367.033 238.639C368.755 242.42 369.623 246.534 369.577 250.688L369.51 273.662ZM403.374 225.257C404.411 226.263 405.022 227.628 405.083 229.071C405.143 230.514 404.648 231.925 403.699 233.014C402.751 234.103 401.421 234.787 399.983 234.925C398.545 235.063 397.109 234.645 395.971 233.756L267.155 122.138C264.028 119.408 260.018 117.904 255.867 117.904C251.716 117.904 247.706 119.408 244.579 122.138L195.177 165.298C194.336 166.058 193.287 166.55 192.164 166.712C191.042 166.874 189.896 166.698 188.874 166.207C187.852 165.715 186.999 164.931 186.425 163.953C185.851 162.975 185.58 161.848 185.649 160.716V145.112C185.658 144.737 185.591 144.365 185.453 144.017C185.315 143.668 185.108 143.351 184.844 143.085C184.581 142.818 184.266 142.608 183.92 142.465C183.573 142.323 183.201 142.252 182.827 142.257H156.698C156.324 142.252 155.952 142.323 155.605 142.465C155.259 142.608 154.944 142.818 154.681 143.085C154.418 143.351 154.211 143.668 154.072 144.017C153.934 144.365 153.867 144.737 153.876 145.112V198.431C153.883 199.282 153.699 200.124 153.337 200.894C152.975 201.664 152.445 202.343 151.785 202.88L116.128 233.756C114.989 234.645 113.554 235.063 112.116 234.925C110.678 234.787 109.348 234.103 108.4 233.014C107.451 231.925 106.956 230.514 107.016 229.071C107.077 227.628 107.688 226.263 108.724 225.257L141.526 196.672C141.837 196.408 142.092 196.083 142.275 195.718C142.457 195.353 142.564 194.954 142.588 194.547V142.257C142.562 140.75 142.833 139.252 143.387 137.85C143.94 136.449 144.765 135.17 145.814 134.087C146.862 133.005 148.114 132.14 149.498 131.542C150.881 130.944 152.369 130.625 153.876 130.604H185.649C187.156 130.625 188.644 130.944 190.027 131.542C191.411 132.14 192.663 133.005 193.712 134.087C194.76 135.17 195.585 136.449 196.138 137.85C196.692 139.252 196.963 140.75 196.937 142.257C197.051 142.77 197.286 143.248 197.621 143.653C197.957 144.058 198.384 144.377 198.867 144.584C199.35 144.792 199.875 144.881 200.4 144.846C200.924 144.811 201.433 144.652 201.884 144.382L237.175 113.672C242.299 108.969 249.046 106.434 256 106.6C262.961 106.56 269.695 109.076 274.924 113.672L403.374 225.257ZM256 217.853C253.687 217.827 251.418 218.489 249.483 219.757C247.548 221.024 246.033 222.839 245.133 224.969C244.232 227.1 243.987 229.451 244.426 231.722C244.866 233.993 245.972 236.082 247.603 237.722C249.234 239.362 251.317 240.48 253.585 240.933C255.853 241.386 258.205 241.154 260.341 240.266C262.477 239.377 264.301 237.874 265.579 235.946C266.857 234.018 267.533 231.753 267.52 229.44C267.469 226.394 266.241 223.486 264.094 221.326C261.946 219.166 259.045 217.921 256 217.853Z" fill="white"></path><defs><linearGradient id="paint0_linear_3179_2104" x1="-134.5" y1="45.5" x2="429.5" y2="641" gradientUnits="userSpaceOnUse"><stop offset="0.248892" stop-color="#C6A047"></stop><stop offset="0.560521" stop-color="#E6C76A"></stop><stop offset="1" stop-color="#8A6B1F"></stop></linearGradient></defs></svg>